# File produced by Open Asset Import Library (http://www.assimp.sf.net)
# (assimp v5.0.1588609223)

mtllib result.mtl

# 84 vertex positions
v  4 4 6
v  4 0 6
v  4 4 -4
v  4 0 -4
v  -4 4 -4
v  -4 0 -4
v  -4 4 6
v  -4 0 6
v  4 4.5 -4
v  4 -0.5 -4
v  4 4.5 -9
v  4 -0.5 -9
v  -4 4.5 -9
v  -4 -0.5 -9
v  -4 4.5 -4
v  -4 -0.5 -4
v  7 7.5 -4.9990001
v  7 4.5 -4.9990001
v  7 7.5 -5
v  7 4.5 -5
v  -7 7.5 -5
v  -7 4.5 -5
v  -7 7.5 -4.9990001
v  -7 4.5 -4.9990001
v  -4 6.5 -4.9990001
v  -4 -0.5 -4.9990001
v  -4 6.5 -5
v  -4 -0.5 -5
v  -7 6.5 -5
v  -7 -0.5 -5
v  -7 6.5 -4.9990001
v  -7 -0.5 -4.9990001
v  7 6.5 -4.9990001
v  7 -0.5 -4.9990001
v  7 6.5 -5
v  7 -0.5 -5
v  4 6.5 -5
v  4 -0.5 -5
v  4 6.5 -4.9990001
v  4 -0.5 -4.9990001
v  0.001 5 6
v  0.001 0 6
v  0.001 5 -3
v  0.001 0 -3
v  0 5 -3
v  0 0 -3
v  0 5 6
v  0 0 6
v  0.001 5 18
v  0.001 0 18
v  0 5 18
v  0 0 18
v  -3.9990001 1 -1
v  -3.9990001 -4 -1
v  -3.9990001 1 -4
v  -3.9990001 -4 -4
v  -4 1 -4
v  -4 -4 -4
v  -4 1 -1
v  -4 -4 -1
v  4.0009999 1 -1
v  4.0009999 -4 -1
v  4.0009999 1 -4
v  4.0009999 -4 -4
v  4 1 -4
v  4 -4 -4
v  4 1 -1
v  4 -4 -1
v  4.0009999 1 6
v  4.0009999 -4 6
v  4.0009999 1 3
v  4.0009999 -4 3
v  4 1 3
v  4 -4 3
v  4 1 6
v  4 -4 6
v  -3.9990001 1 6
v  -3.9990001 -4 6
v  -3.9990001 1 3
v  -3.9990001 -4 3
v  -4 1 3
v  -4 -4 3
v  -4 1 6
v  -4 -4 6

# 129 UV coordinates
vt 0.00024414062 0.32836914 0
vt 0.00024414062 0.39038086 0
vt 0.15600586 0.32836914 0
vt 0.15600586 0.39038086 0
vt 0.28149414 0.32836914 0
vt 0.28149414 0.39038086 0
vt 0.43725586 0.32836914 0
vt 0.43725586 0.39038086 0
vt 0.28100586 0.32788086 0
vt 0.28100586 0.17211914 0
vt 0.15649414 0.32788086 0
vt 0.15649414 0.17211914 0
vt 0.40600586 0.17211914 0
vt 0.40600586 0.32788086 0
vt 0.28149414 0.17211914 0
vt 0.28149414 0.32788086 0
vt 0.43774414 0.32836914 0
vt 0.43774414 0.39038086 0
vt 0.56225586 0.32836914 0
vt 0.56225586 0.39038086 0
vt 0.15649414 0.32836914 0
vt 0.15649414 0.39038086 0
vt 0.28100586 0.32836914 0
vt 0.28100586 0.39038086 0
vt 0.00024414062 0.093994141 0
vt 0.00024414062 0.17163086 0
vt 0.077880859 0.093994141 0
vt 0.077880859 0.17163086 0
vt 0.20336914 0.093994141 0
vt 0.20336914 0.17163086 0
vt 0.28100586 0.093994141 0
vt 0.28100586 0.17163086 0
vt 0.20288086 0.093505859 0
vt 0.20288086 0.015869141 0
vt 0.078369141 0.093505859 0
vt 0.078369141 0.015869141 0
vt 0.32788086 0.015869141 0
vt 0.32788086 0.093505859 0
vt 0.20336914 0.015869141 0
vt 0.20336914 0.093505859 0
vt 0.28149414 0.093994141 0
vt 0.28149414 0.17163086 0
vt 0.40600586 0.093994141 0
vt 0.40600586 0.17163086 0
vt 0.078369141 0.093994141 0
vt 0.078369141 0.17163086 0
vt 0.20288086 0.093994141 0
vt 0.20288086 0.17163086 0
vt 0.00024414062 0.57836914 0
vt 0.00024414062 0.62475586 0
vt -0.00024414062 0.57836914 0
vt -0.00024414062 0.62475586 0
vt 0.21899414 0.57836914 0
vt 0.21899414 0.62475586 0
vt 0.21850586 0.57836914 0
vt 0.21850586 0.62475586 0
vt 0.21850586 0.57788086 0
vt 0.00024414062 0.57788086 0
vt 0.43725586 0.57836914 0
vt 0.43725586 0.57788086 0
vt 0.21899414 0.57788086 0
vt 0.43725586 0.62475586 0
vt 0.17211914 0.62524414 0
vt 0.17211914 0.73413086 0
vt 0.17163086 0.62524414 0
vt 0.17163086 0.73413086 0
vt 0.21899414 0.62524414 0
vt 0.21899414 0.73413086 0
vt 0.21850586 0.62524414 0
vt 0.21850586 0.73413086 0
vt 0.17211914 0.62475586 0
vt 0.26538086 0.62524414 0
vt 0.26538086 0.62475586 0
vt 0.26538086 0.73413086 0
vt 0.00024414062 0.62524414 0
vt 0.00024414062 0.73413086 0
vt -0.00024414062 0.62524414 0
vt -0.00024414062 0.73413086 0
vt 0.047119141 0.62524414 0
vt 0.047119141 0.73413086 0
vt 0.046630859 0.62524414 0
vt 0.046630859 0.73413086 0
vt 0.046630859 0.62475586 0
vt 0.093505859 0.62524414 0
vt 0.093505859 0.62475586 0
vt 0.047119141 0.62475586 0
vt 0.093505859 0.73413086 0
vt 0.031494141 0.40649414 0
vt 0.031494141 0.48413086 0
vt 0.17163086 0.40649414 0
vt 0.17163086 0.48413086 0
vt 0.17211914 0.40649414 0
vt 0.17211914 0.48413086 0
vt 0.31225586 0.40649414 0
vt 0.31225586 0.48413086 0
vt 0.17211914 0.40600586 0
vt 0.17211914 0.26586914 0
vt 0.17163086 0.40600586 0
vt 0.17163086 0.26586914 0
vt 0.31274414 0.40649414 0
vt 0.31274414 0.48413086 0
vt 0.031494141 0.48461914 0
vt 0.031494141 0.56225586 0
vt 0.21850586 0.48461914 0
vt 0.21850586 0.56225586 0
vt 0.21899414 0.48461914 0
vt 0.21899414 0.56225586 0
vt 0.40600586 0.48461914 0
vt 0.40600586 0.56225586 0
vt 0.21899414 0.48413086 0
vt 0.21899414 0.29711914 0
vt 0.21850586 0.48413086 0
vt 0.21850586 0.29711914 0
vt 0.40649414 0.48461914 0
vt 0.40649414 0.56225586 0
vt 0.031494141 0.20336914 0
vt 0.031494141 0.28100586 0
vt 0.077880859 0.20336914 0
vt 0.077880859 0.28100586 0
vt 0.078369141 0.20336914 0
vt 0.078369141 0.28100586 0
vt 0.12475586 0.20336914 0
vt 0.12475586 0.28100586 0
vt 0.078369141 0.20288086 0
vt 0.078369141 0.15649414 0
vt 0.077880859 0.20288086 0
vt 0.077880859 0.15649414 0
vt 0.12524414 0.20336914 0
vt 0.12524414 0.28100586 0

# 6 vertex normals
vn 1 0 0
vn -1 0 0
vn 0 1 0
vn 0 -1 0
vn 0 0 1
vn 0 0 -1

# Mesh 'Object_0' with 12 faces
g Object_0
usemtl material_0
f  1/1/1 2/2/1 3/3/1
f  2/2/1 4/4/1 3/3/1
f  5/5/2 6/6/2 7/7/2
f  6/6/2 8/8/2 7/7/2
f  5/9/3 7/10/3 3/11/3
f  7/10/3 1/12/3 3/11/3
f  8/13/4 6/14/4 2/15/4
f  6/14/4 4/16/4 2/15/4
f  7/17/5 8/18/5 1/19/5
f  8/18/5 2/20/5 1/19/5
f  3/21/6 4/22/6 5/23/6
f  4/22/6 6/24/6 5/23/6

# Mesh 'Object_1' with 12 faces
g Object_1
usemtl material_0
f  9/25/1 10/26/1 11/27/1
f  10/26/1 12/28/1 11/27/1
f  13/29/2 14/30/2 15/31/2
f  14/30/2 16/32/2 15/31/2
f  13/33/3 15/34/3 11/35/3
f  15/34/3 9/36/3 11/35/3
f  16/37/4 14/38/4 10/39/4
f  14/38/4 12/40/4 10/39/4
f  15/41/5 16/42/5 9/43/5
f  16/42/5 10/44/5 9/43/5
f  11/45/6 12/46/6 13/47/6
f  12/46/6 14/48/6 13/47/6

# Mesh 'Object_2' with 12 faces
g Object_2
usemtl material_0
f  17/49/1 18/50/1 19/51/1
f  18/50/1 20/52/1 19/51/1
f  21/53/2 22/54/2 23/55/2
f  22/54/2 24/56/2 23/55/2
f  21/55/3 23/57/3 19/49/3
f  23/57/3 17/58/3 19/49/3
f  24/59/4 22/60/4 18/53/4
f  22/60/4 20/61/4 18/53/4
f  23/53/5 24/54/5 17/59/5
f  24/54/5 18/62/5 17/59/5
f  19/49/6 20/50/6 21/55/6
f  20/50/6 22/56/6 21/55/6

# Mesh 'Object_3' with 12 faces
g Object_3
usemtl material_0
f  25/63/1 26/64/1 27/65/1
f  26/64/1 28/66/1 27/65/1
f  29/67/2 30/68/2 31/69/2
f  30/68/2 32/70/2 31/69/2
f  29/69/3 31/56/3 27/63/3
f  31/56/3 25/71/3 27/63/3
f  32/72/4 30/73/4 26/67/4
f  30/73/4 28/54/4 26/67/4
f  31/67/5 32/68/5 25/72/5
f  32/68/5 26/74/5 25/72/5
f  27/63/6 28/64/6 29/69/6
f  28/64/6 30/70/6 29/69/6

# Mesh 'Object_4' with 12 faces
g Object_4
usemtl material_0
f  33/75/1 34/76/1 35/77/1
f  34/76/1 36/78/1 35/77/1
f  37/79/2 38/80/2 39/81/2
f  38/80/2 40/82/2 39/81/2
f  37/81/3 39/83/3 35/75/3
f  39/83/3 33/50/3 35/75/3
f  40/84/4 38/85/4 34/79/4
f  38/85/4 36/86/4 34/79/4
f  39/79/5 40/80/5 33/84/5
f  40/80/5 34/87/5 33/84/5
f  35/75/6 36/76/6 37/81/6
f  36/76/6 38/82/6 37/81/6

# Mesh 'Object_5' with 12 faces
g Object_5
usemtl material_0
f  41/88/1 42/89/1 43/90/1
f  42/89/1 44/91/1 43/90/1
f  45/92/2 46/93/2 47/94/2
f  46/93/2 48/95/2 47/94/2
f  45/96/3 47/97/3 43/98/3
f  47/97/3 41/99/3 43/98/3
f  48/97/4 46/96/4 42/99/4
f  46/96/4 44/98/4 42/99/4
f  47/100/5 48/101/5 41/94/5
f  48/101/5 42/95/5 41/94/5
f  43/92/6 44/93/6 45/90/6
f  44/93/6 46/91/6 45/90/6

# Mesh 'Object_6' with 12 faces
g Object_6
usemtl material_0
f  49/102/1 50/103/1 41/104/1
f  50/103/1 42/105/1 41/104/1
f  47/106/2 48/107/2 51/108/2
f  48/107/2 52/109/2 51/108/2
f  47/110/3 51/111/3 41/112/3
f  51/111/3 49/113/3 41/112/3
f  52/111/4 48/110/4 50/113/4
f  48/110/4 42/112/4 50/113/4
f  51/114/5 52/115/5 49/108/5
f  52/115/5 50/109/5 49/108/5
f  41/106/6 42/107/6 47/104/6
f  42/107/6 48/105/6 47/104/6

# Mesh 'Object_7' with 12 faces
g Object_7
usemtl material_0
f  53/116/1 54/117/1 55/118/1
f  54/117/1 56/119/1 55/118/1
f  57/120/2 58/121/2 59/122/2
f  58/121/2 60/123/2 59/122/2
f  57/124/3 59/125/3 55/126/3
f  59/125/3 53/127/3 55/126/3
f  60/125/4 58/124/4 54/127/4
f  58/124/4 56/126/4 54/127/4
f  59/128/5 60/129/5 53/122/5
f  60/129/5 54/123/5 53/122/5
f  55/120/6 56/121/6 57/118/6
f  56/121/6 58/119/6 57/118/6

# Mesh 'Object_8' with 12 faces
g Object_8
usemtl material_0
f  61/116/1 62/117/1 63/118/1
f  62/117/1 64/119/1 63/118/1
f  65/120/2 66/121/2 67/122/2
f  66/121/2 68/123/2 67/122/2
f  65/124/3 67/125/3 63/126/3
f  67/125/3 61/127/3 63/126/3
f  68/125/4 66/124/4 62/127/4
f  66/124/4 64/126/4 62/127/4
f  67/128/5 68/129/5 61/122/5
f  68/129/5 62/123/5 61/122/5
f  63/120/6 64/121/6 65/118/6
f  64/121/6 66/119/6 65/118/6

# Mesh 'Object_9' with 12 faces
g Object_9
usemtl material_0
f  69/116/1 70/117/1 71/118/1
f  70/117/1 72/119/1 71/118/1
f  73/120/2 74/121/2 75/122/2
f  74/121/2 76/123/2 75/122/2
f  73/124/3 75/125/3 71/126/3
f  75/125/3 69/127/3 71/126/3
f  76/125/4 74/124/4 70/127/4
f  74/124/4 72/126/4 70/127/4
f  75/128/5 76/129/5 69/122/5
f  76/129/5 70/123/5 69/122/5
f  71/120/6 72/121/6 73/118/6
f  72/121/6 74/119/6 73/118/6

# Mesh 'Object_10' with 12 faces
g Object_10
usemtl material_0
f  77/116/1 78/117/1 79/118/1
f  78/117/1 80/119/1 79/118/1
f  81/120/2 82/121/2 83/122/2
f  82/121/2 84/123/2 83/122/2
f  81/124/3 83/125/3 79/126/3
f  83/125/3 77/127/3 79/126/3
f  84/125/4 82/124/4 78/127/4
f  82/124/4 80/126/4 78/127/4
f  83/128/5 84/129/5 77/122/5
f  84/129/5 78/123/5 77/122/5
f  79/120/6 80/121/6 81/118/6
f  80/121/6 82/119/6 81/118/6

